name rise30.8019peak61.5557fall86.2505.mot
datacolumns 19
datarows 35
range 20.47825700000000 20.53492100000000
endheader
time	ground_force1_vx	ground_force1_vy	ground_force1_vz	ground_force1_px	ground_force1_py	ground_force1_pz	ground_force2_vx	ground_force2_vy	ground_force2_vz	ground_force2_px	ground_force2_py	ground_force2_pz	ground_torque1_x	ground_torque1_y	ground_torque1_z	ground_torque2_x	ground_torque2_y	ground_torque2_z	
20.47825700000000	-47.00930300000000	768.74636099999998	47.96126700000000	0.02460300000000	0.00000000000000	0.10880700000000	-3.17457600000000	15.82153400000000	4.49590600000000	0.00000000000000	0.00000000000000	0.00000000000000	0.00000000000000	13.73580300000000	0.00000000000000	0.00000000000000	1.24519800000000	0.00000000000000	
20.47992400000000	-47.16414500000000	767.15863899999999	47.86735600000000	0.02398500000000	0.00000000000000	0.10874700000000	-4.03224100000000	20.92251500000000	5.80938700000000	0.00000000000000	0.00000000000000	0.00000000000000	0.00000000000000	13.65927600000000	0.00000000000000	0.00000000000000	1.61807200000000	0.00000000000000	
20.48159100000000	-47.33595400000000	765.51293599999997	47.75791400000000	0.02336800000000	0.00000000000000	0.10868300000000	-4.90986500000000	26.42780200000000	7.18699700000000	0.30656800000000	0.00000000000000	-0.06177000000000	0.00000000000000	13.58573800000000	0.00000000000000	0.00000000000000	3.91202700000000	0.00000000000000	
20.48325800000000	-47.52532800000000	763.80946300000005	47.63275000000000	0.02275100000000	0.00000000000000	0.10861400000000	-5.77647900000000	32.21267700000000	8.58809500000000	0.30843200000000	0.00000000000000	-0.06202600000000	0.00000000000000	13.51538700000000	0.00000000000000	0.00000000000000	4.70658800000000	0.00000000000000	
20.48492900000000	-47.73282300000000	762.04835100000003	47.49169300000000	0.02213400000000	0.00000000000000	0.10854100000000	-6.60158400000000	38.14732000000000	9.97174700000000	0.31020100000000	0.00000000000000	-0.06228200000000	0.00000000000000	13.44841000000000	0.00000000000000	0.00000000000000	5.50112000000000	0.00000000000000	
20.48659900000000	-47.95896200000000	760.22964700000000	47.33459700000000	0.02151800000000	0.00000000000000	0.10846400000000	-7.35737900000000	44.10723000000000	11.29980000000000	0.31188300000000	0.00000000000000	-0.06253700000000	0.00000000000000	13.38498700000000	0.00000000000000	0.00000000000000	6.27464100000000	0.00000000000000	
20.48825500000000	-48.20422300000000	758.35330399999998	47.16133300000000	0.02090200000000	0.00000000000000	0.10838200000000	-8.02060000000000	49.98234500000000	12.53948500000000	0.31348400000000	0.00000000000000	-0.06279400000000	0.00000000000000	13.32528900000000	0.00000000000000	0.00000000000000	7.00878600000000	0.00000000000000	
20.48992200000000	-48.46904400000000	756.41917899999999	46.97179700000000	0.02028700000000	0.00000000000000	0.10829500000000	-8.57378300000000	55.68390300000000	13.66528000000000	0.31501100000000	0.00000000000000	-0.06305100000000	0.00000000000000	13.26947600000000	0.00000000000000	0.00000000000000	7.68889500000000	0.00000000000000	
20.49158800000000	-48.75381500000000	754.42702799999995	46.76590700000000	0.01967200000000	0.00000000000000	0.10820400000000	-9.00587600000000	61.14859000000000	14.65991600000000	0.31646700000000	0.00000000000000	-0.06331000000000	0.00000000000000	13.21769800000000	0.00000000000000	0.00000000000000	8.30464100000000	0.00000000000000	
20.49325800000000	-49.05888000000000	752.37650199999996	46.54360000000000	0.01905800000000	0.00000000000000	0.10810800000000	-9.31224700000000	66.33996100000000	15.51456100000000	0.31785700000000	0.00000000000000	-0.06357000000000	0.00000000000000	13.17009300000000	0.00000000000000	0.00000000000000	8.85022200000000	0.00000000000000	
20.49492800000000	-49.38453300000000	750.26713800000005	46.30484000000000	0.01844400000000	0.00000000000000	0.10800700000000	-9.49415500000000	71.24741800000000	16.22827600000000	0.31918300000000	0.00000000000000	-0.06383300000000	0.00000000000000	13.12679100000000	0.00000000000000	0.00000000000000	9.32413700000000	0.00000000000000	
20.49659500000000	-49.73101300000000	748.09836399999995	46.04960800000000	0.01783000000000	0.00000000000000	0.10790200000000	-9.55783900000000	75.88323500000000	16.80691900000000	0.32044800000000	0.00000000000000	-0.06409800000000	0.00000000000000	13.08790400000000	0.00000000000000	0.00000000000000	9.72865100000000	0.00000000000000	
20.49826300000000	-50.09850800000000	745.86948800000005	45.77791200000000	0.01721700000000	0.00000000000000	0.10779200000000	-9.51334600000000	80.27822100000000	17.26167200000000	0.32165500000000	0.00000000000000	-0.06436600000000	0.00000000000000	13.05353700000000	0.00000000000000	0.00000000000000	10.06904200000000	0.00000000000000	
20.49992500000000	-50.48714400000000	743.57970200000000	45.48977900000000	0.01660300000000	0.00000000000000	0.10767800000000	-9.37325400000000	84.47660100000000	17.60739100000000	0.32280400000000	0.00000000000000	-0.06463600000000	0.00000000000000	13.02377900000000	0.00000000000000	0.00000000000000	10.35272300000000	0.00000000000000	
20.50159500000000	-50.89699300000000	741.22807599999999	45.18525900000000	0.01599000000000	0.00000000000000	0.10755900000000	-9.15140900000000	88.53069200000000	17.86093700000000	0.32389600000000	0.00000000000000	-0.06490900000000	0.00000000000000	12.99870500000000	0.00000000000000	0.00000000000000	10.58834400000000	0.00000000000000	
20.50326300000000	-51.32806200000000	738.81355900000005	44.86442400000000	0.01537500000000	0.00000000000000	0.10743600000000	-8.86177300000000	92.49583300000000	18.03963200000000	0.32493400000000	0.00000000000000	-0.06518600000000	0.00000000000000	12.97837800000000	0.00000000000000	0.00000000000000	10.78493900000000	0.00000000000000	
20.50492500000000	-51.78029500000000	736.33497799999998	44.52736700000000	0.01476100000000	0.00000000000000	0.10730900000000	-8.51746500000000	96.42593100000001	18.15993700000000	0.32591800000000	0.00000000000000	-0.06546500000000	0.00000000000000	12.96284600000000	0.00000000000000	0.00000000000000	10.95119700000000	0.00000000000000	
20.50659400000000	-52.25357200000000	733.79103899999996	44.17420300000000	0.01414500000000	0.00000000000000	0.10717700000000	-8.13002100000000	100.36986899999999	18.23642500000000	0.32684900000000	0.00000000000000	-0.06574700000000	0.00000000000000	12.95214100000000	0.00000000000000	0.00000000000000	11.09487100000000	0.00000000000000	
20.50826000000000	-52.74770200000000	731.18032600000004	43.80506800000000	0.01352800000000	0.00000000000000	0.10704100000000	-7.70891300000000	104.36890200000001	18.28107200000000	0.32772600000000	0.00000000000000	-0.06603300000000	0.00000000000000	12.94628300000000	0.00000000000000	0.00000000000000	11.22236500000000	0.00000000000000	
20.50992800000000	-53.26242800000000	728.50130400000000	43.42012000000000	0.01291000000000	0.00000000000000	0.10690000000000	-7.26129700000000	108.45506200000000	18.30286300000000	0.32855200000000	0.00000000000000	-0.06632200000000	0.00000000000000	12.94527300000000	0.00000000000000	0.00000000000000	11.33849900000000	0.00000000000000	
20.51159400000000	-53.79741900000000	725.75232100000005	43.01953700000000	0.01228900000000	0.00000000000000	0.10675600000000	-6.79198900000000	112.65052000000000	18.30769500000000	0.32932500000000	0.00000000000000	-0.06661400000000	0.00000000000000	12.94909900000000	0.00000000000000	0.00000000000000	11.44642100000000	0.00000000000000	
20.51325600000000	-54.35227100000000	722.93161199999997	42.60351600000000	0.01166600000000	0.00000000000000	0.10660800000000	-6.30360700000000	116.96777400000001	18.29851800000000	0.33004600000000	0.00000000000000	-0.06690900000000	0.00000000000000	12.95773200000000	0.00000000000000	0.00000000000000	11.54767700000000	0.00000000000000	
20.51492200000000	-54.92650700000000	720.03730099999996	42.17227500000000	0.01104100000000	0.00000000000000	0.10645500000000	-5.79685900000000	121.41049900000000	18.27567600000000	0.33071600000000	0.00000000000000	-0.06720800000000	0.00000000000000	12.97112700000000	0.00000000000000	0.00000000000000	11.64237300000000	0.00000000000000	
20.51658900000000	-55.51957200000000	717.06740500000001	41.72605300000000	0.01041300000000	0.00000000000000	0.10630000000000	-5.27091600000000	125.97487300000000	18.23737000000000	0.33133400000000	0.00000000000000	-0.06751000000000	0.00000000000000	12.98922400000000	0.00000000000000	0.00000000000000	11.72942500000000	0.00000000000000	
20.51825500000000	-56.13083400000000	714.01984300000004	41.26510600000000	0.00978100000000	0.00000000000000	0.10614000000000	-4.72383200000000	130.65119600000000	18.18020100000000	0.33190100000000	0.00000000000000	-0.06781400000000	0.00000000000000	13.01194600000000	0.00000000000000	0.00000000000000	11.80685100000000	0.00000000000000	
20.51993000000000	-56.75958200000000	710.89243799999997	40.78970800000000	0.00914500000000	0.00000000000000	0.10597700000000	-4.15296400000000	135.42562400000000	18.09972300000000	0.33241600000000	0.00000000000000	-0.06812200000000	0.00000000000000	13.03919900000000	0.00000000000000	0.00000000000000	11.87207300000000	0.00000000000000	
20.52159500000000	-57.40502500000000	707.68292199999996	40.30015400000000	0.00850500000000	0.00000000000000	0.10581100000000	-3.55537500000000	140.28187000000000	17.99098200000000	0.33288000000000	0.00000000000000	-0.06843200000000	0.00000000000000	13.07087400000000	0.00000000000000	0.00000000000000	11.92221800000000	0.00000000000000	
20.52325500000000	-58.06629200000000	704.38894900000003	39.79675500000000	0.00786000000000	0.00000000000000	0.10564200000000	-2.92817300000000	145.20274900000001	17.84898100000000	0.33329300000000	0.00000000000000	-0.06874500000000	0.00000000000000	13.10684300000000	0.00000000000000	0.00000000000000	11.95437600000000	0.00000000000000	
20.52492500000000	-58.74243100000000	701.00809800000002	39.27983800000000	0.00721000000000	0.00000000000000	0.10547000000000	-2.26879600000000	150.17149599999999	17.66907600000000	0.33365500000000	0.00000000000000	-0.06906100000000	0.00000000000000	13.14696600000000	0.00000000000000	0.00000000000000	11.96582700000000	0.00000000000000	
20.52658700000000	-59.43240900000000	697.53787999999997	38.74974700000000	0.00655400000000	0.00000000000000	0.10529500000000	-1.57521300000000	155.17278200000001	17.44726500000000	0.33396600000000	0.00000000000000	-0.06937900000000	0.00000000000000	13.19108200000000	0.00000000000000	0.00000000000000	11.95420400000000	0.00000000000000	
20.52826300000000	-60.13511100000000	693.97575200000006	38.20684400000000	0.00589200000000	0.00000000000000	0.10511700000000	-0.84605000000000	160.19344100000001	17.18038700000000	0.33422600000000	0.00000000000000	-0.06969900000000	0.00000000000000	13.23901800000000	0.00000000000000	0.00000000000000	11.91761300000000	0.00000000000000	
20.52992700000000	-60.84934000000000	690.31912000000000	37.65150300000000	0.00522300000000	0.00000000000000	0.10493800000000	-0.08065500000000	165.22288399999999	16.86622000000000	0.33443500000000	0.00000000000000	-0.07002100000000	0.00000000000000	13.29058200000000	0.00000000000000	0.00000000000000	11.85468800000000	0.00000000000000	
20.53159200000000	-61.57381800000000	686.56535399999996	37.08411500000000	0.00454700000000	0.00000000000000	0.10475500000000	0.72091200000000	170.25325200000000	16.50350600000000	0.33459400000000	0.00000000000000	-0.07034500000000	0.00000000000000	13.34556900000000	0.00000000000000	0.00000000000000	11.76461100000000	0.00000000000000	
20.53326000000000	-62.30718800000000	682.71179299999994	36.50508500000000	0.00386400000000	0.00000000000000	0.10457100000000	1.55792900000000	175.27933700000000	16.09189700000000	0.33470200000000	0.00000000000000	-0.07067000000000	0.00000000000000	13.40375600000000	0.00000000000000	0.00000000000000	11.64708800000000	0.00000000000000	
20.53492100000000	-63.04801400000000	678.75576100000001	35.91483100000000	0.00317200000000	0.00000000000000	0.10438500000000	2.42909700000000	180.29833400000001	15.63186000000000	0.33476100000000	0.00000000000000	-0.07099700000000	0.00000000000000	13.46490700000000	0.00000000000000	0.00000000000000	11.50229500000000	0.00000000000000	
